<mxfile host="app.diagrams.net" agent="Mozilla/5.0 (X11; Linux x86_64; rv:131.0) Gecko/20100101 Firefox/131.0" version="24.7.17">
  <diagram name="Página-1" id="IKjt2SQiRjq86tuLyzUk">
    <mxGraphModel dx="1611" dy="1784" grid="1" gridSize="10" guides="1" tooltips="1" connect="1" arrows="1" fold="1" page="1" pageScale="1" pageWidth="827" pageHeight="1169" math="0" shadow="0">
      <root>
        <mxCell id="0" />
        <mxCell id="1" parent="0" />
        <mxCell id="tNEQfuzQ0Adx09ItnJI2-7" value="Rede de Trabalhadores - Construção Civil" style="whiteSpace=wrap;strokeWidth=2;verticalAlign=top;movable=1;resizable=1;rotatable=1;deletable=1;editable=1;locked=0;connectable=1;" vertex="1" parent="1">
          <mxGeometry x="40" y="520" width="430" height="310" as="geometry" />
        </mxCell>
        <mxCell id="tNEQfuzQ0Adx09ItnJI2-15" value="&lt;div&gt;Trabalhador&lt;/div&gt;&lt;div&gt;&lt;br&gt;&lt;/div&gt;id_trabalhador (PK)&lt;br&gt;nome&lt;br&gt;telefone&lt;br&gt;especialidade_id (FK)" style="whiteSpace=wrap;html=1;aspect=fixed;" vertex="1" parent="tNEQfuzQ0Adx09ItnJI2-7">
          <mxGeometry x="21.230000000000004" y="30" width="120" height="120" as="geometry" />
        </mxCell>
        <mxCell id="tNEQfuzQ0Adx09ItnJI2-16" value="&lt;div align=&quot;center&quot;&gt;Especialidade&lt;/div&gt;&lt;div align=&quot;center&quot;&gt;&lt;br&gt;&lt;/div&gt;&lt;div align=&quot;center&quot;&gt;id_especialidade (PK)&lt;/div&gt;&lt;div align=&quot;center&quot;&gt;descricao&lt;/div&gt;" style="whiteSpace=wrap;html=1;aspect=fixed;align=center;" vertex="1" parent="tNEQfuzQ0Adx09ItnJI2-7">
          <mxGeometry x="155" y="30" width="120" height="120" as="geometry" />
        </mxCell>
        <mxCell id="tNEQfuzQ0Adx09ItnJI2-17" value="Projeto&lt;br&gt;&lt;br&gt;id_projeto (PK)&lt;br&gt;nome&lt;br&gt;descricao&lt;br&gt;data_inicio&lt;br&gt;data_fim" style="whiteSpace=wrap;html=1;aspect=fixed;align=center;" vertex="1" parent="tNEQfuzQ0Adx09ItnJI2-7">
          <mxGeometry x="290" y="30" width="120" height="120" as="geometry" />
        </mxCell>
        <mxCell id="tNEQfuzQ0Adx09ItnJI2-18" value="Cooperativa&lt;br&gt;&lt;br&gt;id_cooperativa (PK)&lt;br&gt;nome&lt;br&gt;endereco" style="whiteSpace=wrap;html=1;aspect=fixed;align=center;" vertex="1" parent="tNEQfuzQ0Adx09ItnJI2-7">
          <mxGeometry x="21.230000000000018" y="170" width="120" height="120" as="geometry" />
        </mxCell>
        <mxCell id="tNEQfuzQ0Adx09ItnJI2-19" value="Cliente&lt;br&gt;&lt;br&gt;id_cliente (PK)&lt;br&gt;nome&lt;br&gt;telefone" style="whiteSpace=wrap;html=1;aspect=fixed;align=center;" vertex="1" parent="tNEQfuzQ0Adx09ItnJI2-7">
          <mxGeometry x="155" y="170" width="120" height="120" as="geometry" />
        </mxCell>
        <mxCell id="tNEQfuzQ0Adx09ItnJI2-20" value="Fornecedor&lt;br&gt;&lt;br&gt;id_fornecedor (PK)&lt;br&gt;nome&lt;br&gt;telefone" style="whiteSpace=wrap;html=1;aspect=fixed;align=center;" vertex="1" parent="tNEQfuzQ0Adx09ItnJI2-7">
          <mxGeometry x="290" y="170" width="120" height="120" as="geometry" />
        </mxCell>
        <mxCell id="tNEQfuzQ0Adx09ItnJI2-23" value="Loja de Doces" style="whiteSpace=wrap;strokeWidth=2;verticalAlign=top;movable=1;resizable=1;rotatable=1;deletable=1;editable=1;locked=0;connectable=1;" vertex="1" parent="1">
          <mxGeometry x="500" y="520" width="430" height="310" as="geometry" />
        </mxCell>
        <mxCell id="tNEQfuzQ0Adx09ItnJI2-24" value="Doce&lt;br&gt;&lt;br&gt;id_doce (PK)&lt;br&gt;nome&lt;br&gt;preco&lt;br&gt;estoque" style="whiteSpace=wrap;html=1;aspect=fixed;" vertex="1" parent="tNEQfuzQ0Adx09ItnJI2-23">
          <mxGeometry x="21.230000000000004" y="30" width="120" height="120" as="geometry" />
        </mxCell>
        <mxCell id="tNEQfuzQ0Adx09ItnJI2-25" value="Ingrediente&lt;br&gt;&lt;br&gt;id_ingrediente (PK)&lt;br&gt;nome&lt;br&gt;quantidade_em_estoque" style="whiteSpace=wrap;html=1;aspect=fixed;align=center;" vertex="1" parent="tNEQfuzQ0Adx09ItnJI2-23">
          <mxGeometry x="155" y="30" width="120" height="120" as="geometry" />
        </mxCell>
        <mxCell id="tNEQfuzQ0Adx09ItnJI2-26" value="Fornecedor&lt;br&gt;&lt;br&gt;id_fornecedor (PK)&lt;br&gt;nome&lt;br&gt;telefone" style="whiteSpace=wrap;html=1;aspect=fixed;align=center;" vertex="1" parent="tNEQfuzQ0Adx09ItnJI2-23">
          <mxGeometry x="290" y="30" width="120" height="120" as="geometry" />
        </mxCell>
        <mxCell id="tNEQfuzQ0Adx09ItnJI2-28" value="Cliente&lt;br&gt;&lt;br&gt;id_cliente (PK)&lt;br&gt;nome&lt;br&gt;telefone" style="whiteSpace=wrap;html=1;aspect=fixed;align=center;" vertex="1" parent="tNEQfuzQ0Adx09ItnJI2-23">
          <mxGeometry x="20" y="170" width="120" height="120" as="geometry" />
        </mxCell>
        <mxCell id="tNEQfuzQ0Adx09ItnJI2-29" value="Fornecedor&lt;br&gt;&lt;br&gt;id_fornecedor (PK)&lt;br&gt;nome&lt;br&gt;telefone" style="whiteSpace=wrap;html=1;aspect=fixed;align=center;" vertex="1" parent="tNEQfuzQ0Adx09ItnJI2-23">
          <mxGeometry x="160" y="170" width="120" height="120" as="geometry" />
        </mxCell>
        <mxCell id="tNEQfuzQ0Adx09ItnJI2-30" value="Imobiliária" style="whiteSpace=wrap;strokeWidth=2;verticalAlign=top;movable=1;resizable=1;rotatable=1;deletable=1;editable=1;locked=0;connectable=1;" vertex="1" parent="1">
          <mxGeometry x="950" y="520" width="430" height="310" as="geometry" />
        </mxCell>
        <mxCell id="tNEQfuzQ0Adx09ItnJI2-31" value="Imovel&lt;br&gt;&lt;br&gt;id_imovel (PK)&lt;br&gt;endereco&lt;br&gt;valor&lt;br&gt;status" style="whiteSpace=wrap;html=1;aspect=fixed;" vertex="1" parent="tNEQfuzQ0Adx09ItnJI2-30">
          <mxGeometry x="21.230000000000004" y="30" width="120" height="120" as="geometry" />
        </mxCell>
        <mxCell id="tNEQfuzQ0Adx09ItnJI2-32" value="Proprietario&lt;br&gt;&lt;br&gt;id_proprietario (PK)&lt;br&gt;nome&lt;br&gt;telefone" style="whiteSpace=wrap;html=1;aspect=fixed;align=center;" vertex="1" parent="tNEQfuzQ0Adx09ItnJI2-30">
          <mxGeometry x="155" y="30" width="120" height="120" as="geometry" />
        </mxCell>
        <mxCell id="tNEQfuzQ0Adx09ItnJI2-33" value="Cliente&lt;br&gt;&lt;br&gt;id_cliente (PK)&lt;br&gt;nome&lt;br&gt;telefone&lt;br&gt;interesse" style="whiteSpace=wrap;html=1;aspect=fixed;align=center;" vertex="1" parent="tNEQfuzQ0Adx09ItnJI2-30">
          <mxGeometry x="290" y="30" width="120" height="120" as="geometry" />
        </mxCell>
        <mxCell id="tNEQfuzQ0Adx09ItnJI2-34" value="Locacao&lt;br&gt;&lt;br&gt;id_locacao (PK)&lt;br&gt;id_imovel (FK)&lt;br&gt;id_cliente (FK)&lt;br&gt;data_inicio&lt;br&gt;data_fim" style="whiteSpace=wrap;html=1;aspect=fixed;align=center;" vertex="1" parent="tNEQfuzQ0Adx09ItnJI2-30">
          <mxGeometry x="20" y="170" width="120" height="120" as="geometry" />
        </mxCell>
        <mxCell id="tNEQfuzQ0Adx09ItnJI2-37" value="Abrigo para Cães" style="whiteSpace=wrap;strokeWidth=2;verticalAlign=top;movable=1;resizable=1;rotatable=1;deletable=1;editable=1;locked=0;connectable=1;" vertex="1" parent="1">
          <mxGeometry x="950" y="859" width="430" height="159" as="geometry" />
        </mxCell>
        <mxCell id="tNEQfuzQ0Adx09ItnJI2-38" value="Cao&lt;br&gt;&lt;br&gt;id_cao (PK)&lt;br&gt;nome&lt;br&gt;raca&lt;br&gt;idade&lt;br&gt;status" style="whiteSpace=wrap;html=1;aspect=fixed;" vertex="1" parent="tNEQfuzQ0Adx09ItnJI2-37">
          <mxGeometry x="21.230000000000004" y="26.129032258064516" width="104.51612903225806" height="104.51612903225806" as="geometry" />
        </mxCell>
        <mxCell id="tNEQfuzQ0Adx09ItnJI2-39" value="Adotante&lt;br&gt;&lt;br&gt;id_adotante (PK)&lt;br&gt;nome&lt;br&gt;telefone&lt;br&gt;endereco" style="whiteSpace=wrap;html=1;aspect=fixed;align=center;" vertex="1" parent="tNEQfuzQ0Adx09ItnJI2-37">
          <mxGeometry x="155" y="26.129032258064516" width="104.51612903225806" height="104.51612903225806" as="geometry" />
        </mxCell>
        <mxCell id="tNEQfuzQ0Adx09ItnJI2-40" value="Adocao&lt;br&gt;&lt;br&gt;id_adocao (PK)&lt;br&gt;id_cao (FK)&lt;br&gt;id_adotante (FK)&lt;br&gt;data_adocao" style="whiteSpace=wrap;html=1;aspect=fixed;align=center;" vertex="1" parent="tNEQfuzQ0Adx09ItnJI2-37">
          <mxGeometry x="290" y="26.129032258064516" width="104.51612903225806" height="104.51612903225806" as="geometry" />
        </mxCell>
        <mxCell id="tNEQfuzQ0Adx09ItnJI2-45" value="Sistema de Processo Seletivo" style="whiteSpace=wrap;strokeWidth=2;verticalAlign=top;movable=1;resizable=1;rotatable=1;deletable=1;editable=1;locked=0;connectable=1;" vertex="1" parent="1">
          <mxGeometry x="40" y="859" width="430" height="310" as="geometry" />
        </mxCell>
        <mxCell id="tNEQfuzQ0Adx09ItnJI2-46" value="&amp;nbsp;Candidato&lt;br&gt;&lt;br&gt;id_candidato (PK)&lt;br&gt;nome&lt;br&gt;telefone&lt;br&gt;email&lt;br&gt;experiencia" style="whiteSpace=wrap;html=1;aspect=fixed;" vertex="1" parent="tNEQfuzQ0Adx09ItnJI2-45">
          <mxGeometry x="21.230000000000004" y="30" width="120" height="120" as="geometry" />
        </mxCell>
        <mxCell id="tNEQfuzQ0Adx09ItnJI2-47" value="Vaga&lt;br&gt;&lt;br&gt;id_vaga (PK)&lt;br&gt;titulo&lt;br&gt;requisitos&lt;br&gt;salario" style="whiteSpace=wrap;html=1;aspect=fixed;align=center;" vertex="1" parent="tNEQfuzQ0Adx09ItnJI2-45">
          <mxGeometry x="155" y="30" width="120" height="120" as="geometry" />
        </mxCell>
        <mxCell id="tNEQfuzQ0Adx09ItnJI2-48" value="Processo_Seletivo&lt;br&gt;&lt;br&gt;id_processo (PK)&lt;br&gt;id_vaga (FK)&lt;br&gt;data_inicio&lt;br&gt;data_fim" style="whiteSpace=wrap;html=1;aspect=fixed;align=center;" vertex="1" parent="tNEQfuzQ0Adx09ItnJI2-45">
          <mxGeometry x="290" y="30" width="120" height="120" as="geometry" />
        </mxCell>
        <mxCell id="tNEQfuzQ0Adx09ItnJI2-49" value="Fase&lt;br&gt;&lt;br&gt;id_fase (PK)&lt;br&gt;id_processo (FK)&lt;br&gt;descricao&lt;br&gt;data" style="whiteSpace=wrap;html=1;aspect=fixed;align=center;" vertex="1" parent="tNEQfuzQ0Adx09ItnJI2-45">
          <mxGeometry x="20" y="170" width="120" height="120" as="geometry" />
        </mxCell>
        <mxCell id="tNEQfuzQ0Adx09ItnJI2-50" value="Sistema de Cursos" style="whiteSpace=wrap;strokeWidth=2;verticalAlign=top;movable=1;resizable=1;rotatable=1;deletable=1;editable=1;locked=0;connectable=1;" vertex="1" parent="1">
          <mxGeometry x="500" y="859" width="430" height="310" as="geometry" />
        </mxCell>
        <mxCell id="tNEQfuzQ0Adx09ItnJI2-51" value="Curso&lt;br&gt;&lt;br&gt;id_curso (PK)&lt;br&gt;nome&lt;br&gt;descricao&lt;br&gt;duracao" style="whiteSpace=wrap;html=1;aspect=fixed;" vertex="1" parent="tNEQfuzQ0Adx09ItnJI2-50">
          <mxGeometry x="21.230000000000004" y="30" width="120" height="120" as="geometry" />
        </mxCell>
        <mxCell id="tNEQfuzQ0Adx09ItnJI2-52" value="Aluno&lt;br&gt;&lt;br&gt;id_aluno (PK)&lt;br&gt;nome&lt;br&gt;telefone&lt;br&gt;email" style="whiteSpace=wrap;html=1;aspect=fixed;align=center;" vertex="1" parent="tNEQfuzQ0Adx09ItnJI2-50">
          <mxGeometry x="155" y="30" width="120" height="120" as="geometry" />
        </mxCell>
        <mxCell id="tNEQfuzQ0Adx09ItnJI2-53" value="Instrutor&lt;br&gt;&lt;br&gt;id_instrutor (PK)&lt;br&gt;nome&lt;br&gt;especialidade" style="whiteSpace=wrap;html=1;aspect=fixed;align=center;" vertex="1" parent="tNEQfuzQ0Adx09ItnJI2-50">
          <mxGeometry x="290" y="30" width="120" height="120" as="geometry" />
        </mxCell>
        <mxCell id="tNEQfuzQ0Adx09ItnJI2-54" value="Matricula&lt;br&gt;&lt;br&gt;id_matricula (PK)&lt;br&gt;id_curso (FK)&lt;br&gt;id_aluno (FK)&lt;br&gt;data_matricula" style="whiteSpace=wrap;html=1;aspect=fixed;align=center;" vertex="1" parent="tNEQfuzQ0Adx09ItnJI2-50">
          <mxGeometry x="20" y="170" width="120" height="120" as="geometry" />
        </mxCell>
      </root>
    </mxGraphModel>
  </diagram>
</mxfile>
